<svg width="60" height="60" viewBox="0 0 60 60" fill="none" xmlns="http://www.w3.org/2000/svg">
<path d="M54.36 26.5716L2.02838 40.8233C2.34005 36.3183 5.14505 31.5866 10.8117 30.1983C9.14005 23.5966 10.5567 17.3916 14.8634 12.8866C19.765 7.7583 27.585 5.7183 34.3284 7.81496C40.5334 9.7133 44.8967 14.8133 46.455 21.8966C49.5434 22.605 52.2917 24.22 54.36 26.5716Z" fill="#026839"/>
<path opacity="0.4" d="M53.4817 49.3799C50.535 52.0715 46.6817 53.5732 42.6583 53.5732H13.2483C5.485 53.0065 2 47.0282 2 41.7015C2 41.4182 2 41.1349 2.02833 40.8232L54.36 26.5715C55.975 28.2999 57.1933 30.4249 57.93 32.8615C59.8 39.0099 58.1 45.3282 53.4817 49.3799Z" fill="#026839"/>
</svg>
