<svg width="60" height="60" viewBox="0 0 60 60" fill="none" xmlns="http://www.w3.org/2000/svg">
<path opacity="0.4" d="M47.3859 18.2379L46.9878 18.0104L43.035 15.7354L34.8734 11.0147C32.3709 9.56442 28.5603 9.56442 26.0578 11.0147L17.8962 15.7354L13.9434 18.0388L13.4316 18.3232C8.34125 21.7357 8 22.3613 8 27.8497V40.9594C8 46.4479 8.34125 47.0735 13.5453 50.5713L26.0578 57.7944C27.3091 58.5338 28.8731 58.875 30.4656 58.875C32.0297 58.875 33.6222 58.5338 34.8734 57.7944L47.4997 50.486C52.59 47.0735 52.9312 46.4479 52.9312 40.9594V27.8497C52.9312 22.3613 52.59 21.7357 47.3859 18.2379Z" fill="#026839"/>
<path d="M13.9435 18.0387L17.8963 15.7353L25.6881 11.2422L26.0578 11.0147C28.5603 9.56438 32.371 9.56438 34.8735 11.0147L35.2431 11.2422L43.035 15.7353L46.9878 18.0103V11.9247C46.9878 5.52625 43.4616 2 37.0631 2H23.8397C17.4413 2 13.9435 5.52625 13.9435 11.9247V18.0387Z" fill="#026839"/>
<path d="M38.5419 34.2481L36.7788 36.4094C36.4944 36.7222 36.2953 37.3478 36.3238 37.7744L36.4944 40.5613C36.6081 42.2675 35.3853 43.1491 33.7928 42.5235L31.205 41.4997C30.8069 41.3575 30.1244 41.3575 29.7263 41.4997L27.1385 42.5235C25.546 43.1491 24.3232 42.2675 24.4369 40.5613L24.6075 37.7744C24.636 37.3478 24.4369 36.7222 24.1525 36.4094L22.3894 34.2481C21.2803 32.94 21.7638 31.4897 23.4132 31.0631L26.1147 30.3806C26.5413 30.2669 27.0531 29.8688 27.2807 29.4991L28.7878 27.1672C29.7263 25.7169 31.205 25.7169 32.1435 27.1672L33.6506 29.4991C33.8781 29.8688 34.39 30.2669 34.8166 30.3806L37.5181 31.0631C39.1675 31.4897 39.651 32.94 38.5419 34.2481Z" fill="#026839"/>
</svg>
