<svg width="60" height="60" viewBox="0 0 60 60" fill="none" xmlns="http://www.w3.org/2000/svg">
<path opacity="0.4" d="M45.7213 17.8675C45.5288 17.84 45.3363 17.84 45.1438 17.8675C40.8813 17.73 37.4988 14.2375 37.4988 9.9475C37.4988 5.575 41.0463 2 45.4463 2C49.8188 2 53.3938 5.5475 53.3938 9.9475C53.3663 14.2375 49.9838 17.73 45.7213 17.8675Z" fill="#026839"/>
<path opacity="0.4" d="M54.6863 36.925C51.6063 38.9875 47.2888 39.7575 43.3013 39.235C44.3463 36.98 44.8963 34.4775 44.9238 31.8375C44.9238 29.0875 44.3188 26.475 43.1638 24.1925C47.2338 23.6425 51.5513 24.4125 54.6588 26.475C59.0038 29.335 59.0038 34.0375 54.6863 36.925Z" fill="#026839"/>
<path opacity="0.4" d="M15.2238 17.8675C15.4163 17.84 15.6088 17.84 15.8013 17.8675C20.0638 17.73 23.4463 14.2375 23.4463 9.9475C23.4463 5.575 19.8988 2 15.4988 2C11.1263 2 7.55127 5.5475 7.55127 9.9475C7.57877 14.2375 10.9613 17.73 15.2238 17.8675Z" fill="#026839"/>
<path opacity="0.4" d="M15.5262 31.8376C15.5262 34.5051 16.1037 37.0351 17.1487 39.3176C13.2712 39.7301 9.22875 38.9051 6.25875 36.9526C1.91375 34.0651 1.91375 29.3625 6.25875 26.475C9.20125 24.495 13.3537 23.6975 17.2587 24.1375C16.1312 26.4475 15.5262 29.0601 15.5262 31.8376Z" fill="#026839"/>
<path d="M30.8437 40.1425C30.6237 40.115 30.3762 40.115 30.1287 40.1425C25.0687 39.9775 21.0262 35.825 21.0262 30.71C21.0262 25.485 25.2338 21.25 30.4863 21.25C35.7113 21.25 39.9462 25.485 39.9462 30.71C39.9462 35.825 35.9312 39.9775 30.8437 40.1425Z" fill="#026839"/>
<path d="M21.9062 45.835C17.7537 48.6125 17.7537 53.1775 21.9062 55.9275C26.6362 59.09 34.3913 59.09 39.1213 55.9275C43.2738 53.15 43.2738 48.585 39.1213 45.835C34.4188 42.6725 26.6637 42.6725 21.9062 45.835Z" fill="#026839"/>
</svg>
