<svg width="60" height="60" viewBox="0 0 60 60" fill="none" xmlns="http://www.w3.org/2000/svg">
<path opacity="0.4" d="M46.6457 31.8965V44.581C46.6457 47.8486 44.0985 51.3477 41.0368 52.3769L32.8292 55.1042C31.3883 55.593 29.047 55.593 27.6319 55.1042L19.4243 52.3769C16.3368 51.3477 13.8153 47.8486 13.8153 44.581L13.841 31.8965L25.2133 39.3065C27.9921 41.1333 32.5719 41.1333 35.3506 39.3065L46.6457 31.8965Z" fill="#026839"/>
<path d="M50.7623 15.4816L35.3505 5.37008C32.5718 3.54331 27.992 3.54331 25.2133 5.37008L9.7243 15.4816C4.75857 18.6978 4.75857 25.9791 9.7243 29.221L13.841 31.8968L25.2133 39.3068C27.992 41.1336 32.5718 41.1336 35.3505 39.3068L46.6456 31.8968L50.1705 29.5812V37.4543C50.1705 38.5092 51.0453 39.384 52.1002 39.384C53.1551 39.384 54.0299 38.5092 54.0299 37.4543V24.7956C55.0591 21.4765 54.0042 17.6172 50.7623 15.4816Z" fill="#026839"/>
</svg>
