<svg width="60" height="60" viewBox="0 0 60 60" fill="none" xmlns="http://www.w3.org/2000/svg">
<path opacity="0.4" d="M53.6033 20.1383C53.6033 20.5633 53.6033 20.9883 53.575 21.385C49.24 19.77 44.14 20.7616 40.74 23.8216C38.445 21.7533 35.47 20.5917 32.2967 20.5917C25.3267 20.5917 19.66 26.2867 19.66 33.3133C19.66 41.3317 23.6833 47.1966 27.5367 50.9933C27.225 50.965 26.97 50.9083 26.7433 50.8233C19.405 48.3016 3 37.875 3 20.1383C3 12.3183 9.28998 6 17.0533 6C21.6716 6 25.7516 8.20997 28.3016 11.6383C30.88 8.20997 34.96 6 39.55 6C47.3133 6 53.6033 12.3183 53.6033 20.1383Z" fill="#026839"/>
<path d="M48.3333 24.3884C45.3017 24.3884 42.5533 25.8618 40.8533 28.1284C39.1533 25.8618 36.4333 24.3884 33.3733 24.3884C28.2167 24.3884 24.0234 28.5818 24.0234 33.7951C24.0234 35.8068 24.335 37.6484 24.9017 39.3484C27.565 47.7634 35.7533 52.7785 39.805 54.1668C40.3716 54.3651 41.3067 54.3651 41.9017 54.1668C45.9534 52.7785 54.1416 47.7634 56.805 39.3484C57.3716 37.6201 57.6833 35.7784 57.6833 33.7951C57.6833 28.5818 53.49 24.3884 48.3333 24.3884Z" fill="#026839"/>
</svg>
