<svg width="60" height="60" viewBox="0 0 60 60" fill="none" xmlns="http://www.w3.org/2000/svg">
<path opacity="0.4" d="M54.0583 15.4594V23.7427L16.1125 51.5677L8.44167 45.8219C6.54583 44.3927 5 41.3302 5 38.9677V15.4594C5 12.1927 7.50833 8.57604 10.5708 7.43854L26.525 1.45938C28.1875 0.846875 30.8708 0.846875 32.5333 1.45938L48.4875 7.43854C51.55 8.57604 54.0583 12.1927 54.0583 15.4594Z" fill="#026839"/>
<path d="M54.0583 27.7389V38.9681C54.0583 41.3306 52.5125 44.3931 50.6167 45.8222L34.6625 57.7514C33.2625 58.8014 31.3958 59.3264 29.5292 59.3264C27.6625 59.3264 25.7958 58.8014 24.3958 57.7514L18.7958 53.5806L54.0583 27.7389Z" fill="#026839"/>
</svg>
